<svg width="24" height="19" viewBox="0 0 24 19" fill="none" xmlns="http://www.w3.org/2000/svg">
<path d="M2.66667 2.00151C2.3 2.00151 2 2.30173 2 2.66868V16.0121C2 16.379 2.3 16.6792 2.66667 16.6792H21.3333C21.7 16.6792 22 16.379 22 16.0121V2.66868C22 2.30173 21.7 2.00151 21.3333 2.00151H2.66667ZM0 2.66868C0 1.19673 1.19583 0 2.66667 0H21.3333C22.8042 0 24 1.19673 24 2.66868V16.0121C24 17.484 22.8042 18.6807 21.3333 18.6807H2.66667C1.19583 18.6807 0 17.484 0 16.0121V2.66868ZM4 5.33735C4 4.98347 4.14048 4.64407 4.39052 4.39383C4.64057 4.1436 4.97971 4.00302 5.33333 4.00302C5.68696 4.00302 6.02609 4.1436 6.27614 4.39383C6.52619 4.64407 6.66667 4.98347 6.66667 5.33735C6.66667 5.69124 6.52619 6.03064 6.27614 6.28087C6.02609 6.53111 5.68696 6.67169 5.33333 6.67169C4.97971 6.67169 4.64057 6.53111 4.39052 6.28087C4.14048 6.03064 4 5.69124 4 5.33735ZM8.33333 5.33735C8.33333 4.78277 8.77917 4.3366 9.33333 4.3366H18.6667C19.2208 4.3366 19.6667 4.78277 19.6667 5.33735C19.6667 5.89194 19.2208 6.33811 18.6667 6.33811H9.33333C8.77917 6.33811 8.33333 5.89194 8.33333 5.33735ZM8.33333 9.34037C8.33333 8.78578 8.77917 8.33961 9.33333 8.33961H18.6667C19.2208 8.33961 19.6667 8.78578 19.6667 9.34037C19.6667 9.89495 19.2208 10.3411 18.6667 10.3411H9.33333C8.77917 10.3411 8.33333 9.89495 8.33333 9.34037ZM8.33333 13.3434C8.33333 12.7888 8.77917 12.3426 9.33333 12.3426H18.6667C19.2208 12.3426 19.6667 12.7888 19.6667 13.3434C19.6667 13.898 19.2208 14.3441 18.6667 14.3441H9.33333C8.77917 14.3441 8.33333 13.898 8.33333 13.3434ZM5.33333 10.6747C4.97971 10.6747 4.64057 10.5341 4.39052 10.2839C4.14048 10.0337 4 9.69426 4 9.34037C4 8.98648 4.14048 8.64709 4.39052 8.39685C4.64057 8.14661 4.97971 8.00603 5.33333 8.00603C5.68696 8.00603 6.02609 8.14661 6.27614 8.39685C6.52619 8.64709 6.66667 8.98648 6.66667 9.34037C6.66667 9.69426 6.52619 10.0337 6.27614 10.2839C6.02609 10.5341 5.68696 10.6747 5.33333 10.6747ZM4 13.3434C4 12.9895 4.14048 12.6501 4.39052 12.3999C4.64057 12.1496 4.97971 12.009 5.33333 12.009C5.68696 12.009 6.02609 12.1496 6.27614 12.3999C6.52619 12.6501 6.66667 12.9895 6.66667 13.3434C6.66667 13.6973 6.52619 14.0367 6.27614 14.2869C6.02609 14.5371 5.68696 14.6777 5.33333 14.6777C4.97971 14.6777 4.64057 14.5371 4.39052 14.2869C4.14048 14.0367 4 13.6973 4 13.3434Z" fill="#AAAAAA"/>
</svg>
