<svg width="100" height="100" viewBox="0 0 100 100" fill="none" xmlns="http://www.w3.org/2000/svg">
<path fill-rule="evenodd" clip-rule="evenodd" d="M16.6267 33.4962L16.6262 33.4957L50.1219 -4.52831e-06C59.2093 9.21832 59.2093 24.0331 50.1217 33.2514L50.1222 33.2519L50.1218 33.2523L50.1221 33.2527C59.3404 24.1651 74.1552 24.165 83.3735 33.2525L83.3733 33.2527C92.4607 42.4709 92.4607 57.2856 83.3733 66.5038C83.3734 66.504 83.3736 66.5042 83.3738 66.5043L49.8781 100C40.7907 90.7817 40.7907 75.9671 49.8781 66.7488C49.878 66.7487 49.8778 66.7485 49.8776 66.7483L49.8778 66.7482L49.8774 66.7478C40.6592 75.8354 25.8444 75.8354 16.6261 66.7479L16.6265 66.7475C7.53907 57.5292 7.53915 42.7144 16.6267 33.4962Z" fill="url(#paint0_linear_6_153)"/>
<defs>
<linearGradient id="paint0_linear_6_153" x1="-0.122942" y1="0.69776" x2="100.036" y2="99.4529" gradientUnits="userSpaceOnUse">
<stop stop-color="#3C72FF"/>
<stop offset="1" stop-color="#3DC5FF"/>
</linearGradient>
</defs>
</svg>
