<svg width="26" height="24" viewBox="0 0 26 24" fill="none" xmlns="http://www.w3.org/2000/svg">
<path d="M24.9937 11.6467C24.9937 12.3968 24.3687 12.9844 23.6603 12.9844H22.3268L22.356 19.6599C22.356 19.7724 22.3476 19.8849 22.3351 19.9974V20.6683C22.3351 21.5893 21.5893 22.3351 20.6683 22.3351H20.0016C19.9558 22.3351 19.9099 22.3351 19.8641 22.331C19.8058 22.3351 19.7474 22.3351 19.6891 22.3351H18.3348H17.3347C16.4138 22.3351 15.6679 21.5893 15.6679 20.6683V19.6683V17.0014C15.6679 16.2638 15.072 15.6679 14.3345 15.6679H11.6676C10.93 15.6679 10.3341 16.2638 10.3341 17.0014V19.6683V20.6683C10.3341 21.5893 9.58823 22.3351 8.66732 22.3351H7.66723H6.33795C6.27545 22.3351 6.21294 22.331 6.15044 22.3268C6.10043 22.331 6.05043 22.3351 6.00043 22.3351H5.3337C4.41279 22.3351 3.66689 21.5893 3.66689 20.6683V16.0013C3.66689 15.9638 3.66689 15.9221 3.67106 15.8846V12.9844H2.33345C1.58338 12.9844 1 12.401 1 11.6467C1 11.2717 1.12501 10.9383 1.4167 10.6467L12.1009 1.33336C12.3926 1.04167 12.726 1 13.0177 1C13.3094 1 13.6427 1.08334 13.8928 1.29169L24.5353 10.6467C24.8687 10.9383 25.0354 11.2717 24.9937 11.6467Z" stroke="#3C88FF" stroke-width="2"/>
</svg>
